<?xml version="1.0" encoding="utf-8"?>
<!-- Generator: Adobe Illustrator 15.1.0, SVG Export Plug-In . SVG Version: 6.00 Build 0)  -->
<!DOCTYPE svg PUBLIC "-//W3C//DTD SVG 1.1//EN" "http://www.w3.org/Graphics/SVG/1.1/DTD/svg11.dtd">
<svg version="1.1" id="Layer_1" xmlns="http://www.w3.org/2000/svg" xmlns:xlink="http://www.w3.org/1999/xlink" x="0px" y="0px"
	 width="574.308px" height="150.188px" viewBox="0 0 574.308 150.188" enable-background="new 0 0 574.308 150.188"
	 xml:space="preserve">
<g>
	<ellipse fill="#1F3B84" cx="286.967" cy="13.992" rx="10.513" ry="10.303"/>
	<g>
		<path fill="#1F3B84" d="M276.454,33.18h21.065v82.88h-21.065V33.18z"/>
		<path fill="#1F3B84" d="M457.831,31.231c24.373,0,37.482,17.38,37.482,39.326c0,2.438-0.497,7.965-0.497,7.965h-58.375
			c1.319,14.459,12.766,21.937,25.367,21.937c13.598,0,24.384-9.099,24.384-9.099l8.128,14.787c0,0-12.938,11.863-34.004,11.863
			c-28.024,0-45.438-19.828-45.438-43.396C414.879,49.101,432.626,31.231,457.831,31.231z M474.087,64.383
			c-0.335-11.216-7.468-17.232-16.753-17.232c-10.775,0-18.244,6.503-20.233,17.232H474.087z"/>
		<path fill="#1F3B84" d="M351.383,31.231v0.027c-23.614,0.591-36.299,18.868-36.299,41.249c0,22.751,13.759,41.933,37.97,41.933
			c11.284,0,18.58-3.908,23.551-11.217h0.336c0,0-0.336,2.436-0.336,4.386v4.872c0,14.796-10.948,20.156-23.875,20.156
			c-12.775,0-23.389-5.359-23.389-5.359l-6.301,15.761c8.127,4.226,19.4,7.149,30.014,7.149c22.06,0,44.616-10.719,44.616-39.169
			v-68.26V33.18v-1.949H351.383z M357.539,97.048c-13.607,0-21.228-10.729-21.228-25.197c0-13.971,7.123-23.071,19.898-23.071
			c11.444,0,20.893,5.033,20.893,23.885C377.103,91.361,367.654,97.048,357.539,97.048z"/>
		<path fill="#1F3B84" d="M259.083,74.615c0-25.675-14.602-43.385-37.483-43.385c-17.91,0-25.378,12.022-25.378,12.022h-0.324
			c0,0,0.324-2.922,0.324-6.991V0.674h-21.054v102.089v13.297v1.95h45.105l0,0C242.666,118.008,259.083,100.946,259.083,74.615z
			 M216.628,100.617c-14.094,0-21.065-12.667-21.065-25.515c0-18.356,10.278-26.162,21.227-26.162
			c12.44,0,21.065,10.243,21.065,26.003C237.855,91.361,228.236,100.617,216.628,100.617z"/>
		<path fill="#1F3B84" d="M533.173,56.259c0-5.209,5.307-7.478,10.786-7.478c0.382,0,0.76-0.001,1.133-0.004l-0.016,0.027
			c0,0,15.42-0.023,27.405-0.023c0-3.481,0-6.128,0-8.133V35.39v-0.682v-3.477h-28.36c-18.244,0-32.339,8.929-32.339,24.372
			c0,26.649,41.126,25.029,41.126,37.379c0,4.882-5.135,7.478-11.111,7.478c-13.759,0-23.054-9.099-23.054-9.099l-9.609,14.458
			c0,0,11.771,12.191,32.836,12.191c20.061,0,32.338-11.048,32.338-24.86C574.308,66.491,533.173,67.953,533.173,56.259z"/>
		<path fill="#1F3B84" d="M143.727,50.533c-0.973,26.622-32.76,48-71.838,48C41.509,98.533,15.516,85.59,5,67.33
			C2.615,73.834,1.775,80.424,2.78,86.779c4.207,26.599,39.079,39.009,77.89,27.716C117.237,103.856,144.248,75.97,143.727,50.533z"
			/>
		<path fill="#DC1915" d="M65.451,18.154c38.81-11.292,73.682,1.117,77.889,27.717c0.216,1.356,0.338,2.721,0.385,4.095
			c0.005-0.235,0.014-0.471,0.014-0.708C143.739,22.054,111.563,0,71.87,0C32.178,0,0,22.054,0,49.258
			c0,6.386,1.776,12.486,5.002,18.085C12.591,46.618,35.908,26.75,65.451,18.154z"/>
	</g>
	<g>
		<path fill="#E30613" d="M321.828,7.313c3.165,0,4.813,1.561,4.813,1.561l-0.937,1.358c0,0-1.479-1.267-3.728-1.267
			c-3.11,0-4.983,2.221-4.983,4.993c0,3.011,2.098,5.085,4.87,5.085c2.287,0,3.747-1.615,3.747-1.615v-1.873h-2.154v-1.579h3.841
			v6.517h-1.63v-0.808c0-0.275,0.019-0.551,0.019-0.551h-0.037c0,0-1.442,1.579-4.065,1.579c-3.56,0-6.5-2.754-6.5-6.719
			C315.084,10.25,317.968,7.313,321.828,7.313z"/>
		<path fill="#E30613" d="M339.068,10.984c2.68,0,4.104,1.946,4.104,4.351c0,0.238-0.057,0.771-0.057,0.771h-6.912
			c0.093,2.038,1.573,3.065,3.259,3.065c1.63,0,2.811-1.083,2.811-1.083l0.749,1.303c0,0-1.405,1.322-3.672,1.322
			c-2.979,0-5.021-2.111-5.021-4.865C334.329,12.894,336.371,10.984,339.068,10.984z M341.316,14.766
			c-0.057-1.597-1.067-2.368-2.285-2.368c-1.387,0-2.511,0.845-2.772,2.368H341.316z"/>
		<path fill="#E30613" d="M350.426,7.533h1.816v10.115c0,1.12,0.45,1.322,1.013,1.322c0.168,0,0.318-0.019,0.318-0.019v1.579
			c0,0-0.281,0.037-0.6,0.037c-1.031,0-2.548-0.275-2.548-2.607V7.533z"/>
		<path fill="#E30613" d="M364.742,10.984c2.68,0,4.103,1.946,4.103,4.351c0,0.238-0.057,0.771-0.057,0.771h-6.912
			c0.094,2.038,1.574,3.065,3.259,3.065c1.631,0,2.812-1.083,2.812-1.083l0.749,1.303c0,0-1.405,1.322-3.672,1.322
			c-2.979,0-5.021-2.111-5.021-4.865C360.003,12.894,362.045,10.984,364.742,10.984z M366.99,14.766
			c-0.057-1.597-1.067-2.368-2.286-2.368c-1.386,0-2.51,0.845-2.772,2.368H366.99z"/>
		<path fill="#E30613" d="M380.613,10.984c2.38,0,3.561,1.358,3.561,1.358l-0.862,1.249c0,0-1.011-1.065-2.623-1.065
			c-1.91,0-3.297,1.396-3.297,3.305c0,1.891,1.387,3.341,3.354,3.341c1.761,0,2.923-1.248,2.923-1.248l0.73,1.303
			c0,0-1.313,1.487-3.785,1.487c-2.978,0-5.076-2.075-5.076-4.865C375.537,13.096,377.636,10.984,380.613,10.984z"/>
		<path fill="#E30613" d="M395.699,10.984c2.68,0,4.104,1.946,4.104,4.351c0,0.238-0.058,0.771-0.058,0.771h-6.911
			c0.093,2.038,1.573,3.065,3.258,3.065c1.631,0,2.812-1.083,2.812-1.083l0.749,1.303c0,0-1.405,1.322-3.672,1.322
			c-2.979,0-5.021-2.111-5.021-4.865C390.96,12.894,393.002,10.984,395.699,10.984z M397.947,14.766
			c-0.057-1.597-1.067-2.368-2.285-2.368c-1.387,0-2.511,0.845-2.772,2.368H397.947z"/>
		<path fill="#E30613" d="M410.616,22.807c1.648,0,2.997-0.716,2.997-2.607v-0.679c0-0.294,0.02-0.587,0.02-0.587h-0.039
			c-0.561,0.917-1.441,1.45-2.809,1.45c-2.643,0-4.235-2.075-4.235-4.755c0-2.662,1.519-4.645,4.141-4.645
			c2.286,0,2.979,1.377,2.979,1.377h0.038c0,0-0.019-0.128-0.019-0.294v-0.863h1.742v8.904c0,3.066-2.38,4.241-4.777,4.241
			c-1.143,0-2.323-0.312-3.24-0.771l0.6-1.396C408.013,22.183,409.192,22.807,410.616,22.807z M413.65,15.647
			c0-2.423-1.199-3.121-2.679-3.121c-1.649,0-2.585,1.175-2.585,3.066c0,1.928,1.05,3.25,2.754,3.25
			C412.451,18.842,413.65,18.071,413.65,15.647z M408.687,7.79V7.533h1.349v0.239c0,0.771,0.543,1.102,1.124,1.102
			c0.543,0,1.105-0.331,1.105-1.12v-0.22h1.349V7.79c0,1.414-1.18,2.148-2.454,2.148C409.866,9.938,408.687,9.204,408.687,7.79z"/>
		<path fill="#E30613" d="M423.416,7.533h1.837v1.817h-1.837V7.533z M423.436,11.205h1.817v9.289h-1.817V11.205z"/>
		<path fill="#E30613" d="M446.67,22.807c1.648,0,2.998-0.716,2.998-2.607v-0.679c0-0.294,0.02-0.587,0.02-0.587h-0.039
			c-0.561,0.917-1.442,1.45-2.809,1.45c-2.643,0-4.235-2.075-4.235-4.755c0-2.662,1.519-4.645,4.141-4.645
			c2.286,0,2.979,1.377,2.979,1.377h0.038c0,0-0.02-0.128-0.02-0.294v-0.863h1.743v8.904c0,3.066-2.38,4.241-4.777,4.241
			c-1.143,0-2.323-0.312-3.24-0.771l0.6-1.396C444.067,22.183,445.247,22.807,446.67,22.807z M449.705,15.647
			c0-2.423-1.199-3.121-2.68-3.121c-1.648,0-2.584,1.175-2.584,3.066c0,1.928,1.05,3.25,2.754,3.25
			C448.506,18.842,449.705,18.071,449.705,15.647z"/>
		<path fill="#E30613" d="M463.91,10.984c2.829,0,5.113,2.038,5.113,4.847c0,2.827-2.284,4.883-5.113,4.883
			s-5.114-2.056-5.114-4.883C458.796,13.022,461.081,10.984,463.91,10.984z M463.91,19.172c1.798,0,3.26-1.395,3.26-3.341
			c0-1.928-1.462-3.305-3.26-3.305c-1.78,0-3.26,1.377-3.26,3.305C460.65,17.777,462.13,19.172,463.91,19.172z M461.605,7.533h1.498
			v1.854h-1.498V7.533z M464.734,7.533h1.498v1.854h-1.498V7.533z"/>
		<path fill="#E30613" d="M476.337,11.205h1.761v1.616c0,0.385-0.038,0.697-0.038,0.697h0.038c0.43-1.358,1.536-2.423,2.997-2.423
			c0.244,0,0.469,0.037,0.469,0.037v1.762c0,0-0.244-0.055-0.524-0.055c-1.162,0-2.229,0.808-2.661,2.185
			c-0.168,0.532-0.225,1.101-0.225,1.67v3.8h-1.816V11.205z"/>
		<path fill="#E30613" d="M488.387,11.205h1.816v5.544c0,1.285,0.263,2.313,1.78,2.313c1.929,0,3.072-1.671,3.072-3.506v-4.351
			h1.816v9.289h-1.761v-1.23c0-0.385,0.037-0.679,0.037-0.679h-0.037c-0.395,0.918-1.63,2.13-3.484,2.13
			c-2.136,0-3.24-1.102-3.24-3.562V11.205z M490.335,7.533h1.498v1.854h-1.498V7.533z M493.463,7.533h1.498v1.854h-1.498V7.533z"/>
		<path fill="#E30613" d="M504.183,22.421c0,0,0.525,0.386,1.106,0.386c0.73,0,1.349-0.514,1.705-1.359l0.468-1.064l-3.972-9.179
			h2.041l2.38,6.077c0.188,0.477,0.356,1.12,0.356,1.12h0.037c0,0,0.149-0.624,0.318-1.102l2.304-6.095h1.968l-4.44,10.96
			c-0.58,1.432-1.741,2.185-3.072,2.185c-1.067,0-1.835-0.569-1.835-0.569L504.183,22.421z"/>
		<path fill="#E30613" d="M524.008,10.984c2.829,0,5.113,2.038,5.113,4.847c0,2.827-2.284,4.883-5.113,4.883
			s-5.113-2.056-5.113-4.883C518.895,13.022,521.179,10.984,524.008,10.984z M524.008,19.172c1.798,0,3.26-1.395,3.26-3.341
			c0-1.928-1.462-3.305-3.26-3.305c-1.78,0-3.26,1.377-3.26,3.305C520.748,17.777,522.228,19.172,524.008,19.172z"/>
		<path fill="#E30613" d="M536.435,11.205h1.761v1.616c0,0.385-0.037,0.697-0.037,0.697h0.037c0.431-1.358,1.536-2.423,2.997-2.423
			c0.244,0,0.469,0.037,0.469,0.037v1.762c0,0-0.244-0.055-0.524-0.055c-1.162,0-2.229,0.808-2.661,2.185
			c-0.168,0.532-0.225,1.101-0.225,1.67v3.8h-1.816V11.205z"/>
		<path fill="#E30613" d="M548.484,11.205h1.816v5.544c0,1.285,0.263,2.313,1.78,2.313c1.929,0,3.072-1.671,3.072-3.506v-4.351
			h1.816v9.289h-1.761v-1.23c0-0.385,0.037-0.679,0.037-0.679h-0.037c-0.394,0.918-1.629,2.13-3.484,2.13
			c-2.136,0-3.24-1.102-3.24-3.562V11.205z"/>
		<path fill="#E30613" d="M564.281,19.466l4.777-5.875c0.412-0.496,0.786-0.863,0.786-0.863v-0.037c0,0-0.3,0.037-0.918,0.037
			h-4.439v-1.524h7.812v1.028l-4.776,5.893c-0.395,0.478-0.806,0.845-0.806,0.845v0.037c0,0,0.318-0.037,0.936-0.037h4.815v1.523
			h-8.187V19.466z"/>
	</g>
</g>
</svg>
